<svg width="173" height="43" viewBox="0 0 173 43" fill="none" xmlns="http://www.w3.org/2000/svg">
<g filter="url(#filter0_d)">
<rect x="3" y="1" width="165" height="35" rx="10" fill="url(#paint0_linear)"/>
<path d="M25.4302 17.9609C25.4302 15.9505 25.9692 14.401 27.0474 13.3125C27.9849 12.3646 29.1776 11.8906 30.6255 11.8906C32.563 11.8906 33.9797 12.526 34.8755 13.7969C35.3703 14.5104 35.6359 15.2266 35.6724 15.9453H33.2661C33.1099 15.3932 32.9093 14.9766 32.6646 14.6953C32.2271 14.1953 31.5786 13.9453 30.7192 13.9453C29.8442 13.9453 29.1541 14.2995 28.6489 15.0078C28.1437 15.7109 27.8911 16.7083 27.8911 18C27.8911 19.2917 28.1567 20.2604 28.688 20.9062C29.2244 21.5469 29.9041 21.8672 30.7271 21.8672C31.5708 21.8672 32.214 21.5911 32.6567 21.0391C32.9015 20.7422 33.1047 20.2969 33.2661 19.7031H35.6489C35.4406 20.9583 34.9067 21.9792 34.0474 22.7656C33.1932 23.5521 32.0968 23.9453 30.7583 23.9453C29.1021 23.9453 27.8 23.4141 26.8521 22.3516C25.9041 21.2839 25.4302 19.8203 25.4302 17.9609ZM42.0083 19.4844C41.8677 19.5729 41.7244 19.6458 41.5786 19.7031C41.438 19.7552 41.2427 19.8047 40.9927 19.8516L40.4927 19.9453C40.0239 20.0286 39.688 20.1302 39.4849 20.25C39.1411 20.4531 38.9692 20.7682 38.9692 21.1953C38.9692 21.5755 39.0734 21.8516 39.2817 22.0234C39.4953 22.1901 39.7531 22.2734 40.0552 22.2734C40.5343 22.2734 40.9744 22.1328 41.3755 21.8516C41.7817 21.5703 41.9927 21.0573 42.0083 20.3125V19.4844ZM40.6567 18.4453C41.0682 18.3932 41.3625 18.3281 41.5396 18.25C41.8573 18.1146 42.0161 17.9036 42.0161 17.6172C42.0161 17.2682 41.8937 17.0286 41.6489 16.8984C41.4093 16.763 41.0552 16.6953 40.5864 16.6953C40.0604 16.6953 39.688 16.8255 39.4692 17.0859C39.313 17.2786 39.2088 17.5391 39.1567 17.8672H37.0083C37.0552 17.1224 37.2635 16.5104 37.6333 16.0312C38.2218 15.2812 39.2323 14.9062 40.6646 14.9062C41.5968 14.9062 42.425 15.0911 43.1489 15.4609C43.8729 15.8307 44.2349 16.5286 44.2349 17.5547V21.4609C44.2349 21.7318 44.2401 22.0599 44.2505 22.4453C44.2661 22.737 44.3104 22.9349 44.3833 23.0391C44.4562 23.1432 44.5656 23.2292 44.7114 23.2969V23.625H42.2896C42.2218 23.4531 42.175 23.2917 42.1489 23.1406C42.1229 22.9896 42.1021 22.8177 42.0864 22.625C41.7791 22.9583 41.425 23.2422 41.0239 23.4766C40.5448 23.7526 40.0031 23.8906 39.3989 23.8906C38.6281 23.8906 37.9901 23.6719 37.4849 23.2344C36.9849 22.7917 36.7349 22.1667 36.7349 21.3594C36.7349 20.3125 37.1385 19.5547 37.9458 19.0859C38.3885 18.8307 39.0396 18.6484 39.8989 18.5391L40.6567 18.4453ZM48.4927 23.625H46.2661V12.1094H48.4927V23.625ZM52.9458 23.625H50.7192V12.1094H52.9458V23.625ZM59.7192 12.1094H62.2427L66.8286 20.1484V12.1094H69.0708V23.625H66.6646L61.9614 15.4453V23.625H59.7192V12.1094ZM73.3599 15.1094V20.2422C73.3599 20.7266 73.4172 21.0911 73.5317 21.3359C73.7349 21.7682 74.1333 21.9844 74.7271 21.9844C75.4875 21.9844 76.0083 21.6771 76.2896 21.0625C76.4354 20.7292 76.5083 20.2891 76.5083 19.7422V15.1094H78.7661V23.625H76.6021V22.4219C76.5812 22.4479 76.5291 22.526 76.4458 22.6562C76.3625 22.7865 76.2635 22.901 76.1489 23C75.8 23.3125 75.4614 23.526 75.1333 23.6406C74.8104 23.7552 74.4302 23.8125 73.9927 23.8125C72.7323 23.8125 71.8833 23.3594 71.4458 22.4531C71.201 21.9531 71.0786 21.2161 71.0786 20.2422V15.1094H73.3599ZM90.438 14.9219C90.813 14.9219 91.1828 14.9948 91.5474 15.1406C91.9119 15.2865 92.2427 15.5417 92.5396 15.9062C92.7791 16.2031 92.9406 16.5677 93.0239 17C93.076 17.2865 93.1021 17.7057 93.1021 18.2578L93.0864 23.625H90.8052V18.2031C90.8052 17.8802 90.7531 17.6146 90.6489 17.4062C90.451 17.0104 90.0864 16.8125 89.5552 16.8125C88.9406 16.8125 88.5161 17.0677 88.2817 17.5781C88.1619 17.849 88.1021 18.1745 88.1021 18.5547V23.625H85.8599V18.5547C85.8599 18.0495 85.8078 17.6823 85.7036 17.4531C85.5161 17.0417 85.1489 16.8359 84.6021 16.8359C83.9666 16.8359 83.5396 17.0417 83.3208 17.4531C83.201 17.6875 83.1411 18.0365 83.1411 18.5V23.625H80.8833V15.125H83.0474V16.3672C83.3234 15.9245 83.5838 15.6094 83.8286 15.4219C84.2609 15.0885 84.8208 14.9219 85.5083 14.9219C86.1593 14.9219 86.6854 15.0651 87.0864 15.3516C87.4093 15.6172 87.6541 15.9583 87.8208 16.375C88.1125 15.875 88.4744 15.5078 88.9067 15.2734C89.3651 15.0391 89.8755 14.9219 90.438 14.9219ZM99.7583 14.9219C100.878 14.9219 101.753 15.3255 102.383 16.1328C103.019 16.9401 103.336 17.9818 103.336 19.2578C103.336 20.5807 103.024 21.6771 102.399 22.5469C101.774 23.4167 100.902 23.8516 99.7817 23.8516C99.0786 23.8516 98.5135 23.7109 98.0864 23.4297C97.8312 23.263 97.5552 22.9714 97.2583 22.5547V23.625H95.0786V12.125H97.2974V16.2188C97.5786 15.8229 97.8885 15.5208 98.2271 15.3125C98.6281 15.0521 99.1385 14.9219 99.7583 14.9219ZM99.188 22.0156C99.7609 22.0156 100.206 21.7839 100.524 21.3203C100.842 20.8568 101 20.2474 101 19.4922C101 18.888 100.922 18.388 100.766 17.9922C100.469 17.2422 99.9224 16.8672 99.1255 16.8672C98.3182 16.8672 97.7635 17.2344 97.4614 17.9688C97.3052 18.3594 97.2271 18.8646 97.2271 19.4844C97.2271 20.2135 97.3885 20.8177 97.7114 21.2969C98.0343 21.776 98.5265 22.0156 99.188 22.0156ZM108.297 16.7188C107.782 16.7188 107.381 16.8802 107.094 17.2031C106.813 17.526 106.636 17.9635 106.563 18.5156H110.024C109.987 17.9271 109.808 17.4818 109.485 17.1797C109.167 16.8724 108.771 16.7188 108.297 16.7188ZM108.297 14.8828C109.006 14.8828 109.644 15.0156 110.211 15.2812C110.779 15.5469 111.248 15.9661 111.618 16.5391C111.951 17.0443 112.167 17.6302 112.266 18.2969C112.323 18.6875 112.347 19.25 112.336 19.9844H106.508C106.54 20.8385 106.808 21.4375 107.313 21.7812C107.62 21.9948 107.99 22.1016 108.422 22.1016C108.881 22.1016 109.253 21.9714 109.54 21.7109C109.696 21.5703 109.834 21.375 109.954 21.125H112.227C112.17 21.6302 111.907 22.1432 111.438 22.6641C110.709 23.4922 109.688 23.9062 108.375 23.9062C107.292 23.9062 106.336 23.5573 105.508 22.8594C104.68 22.1615 104.266 21.026 104.266 19.4531C104.266 17.9792 104.639 16.849 105.383 16.0625C106.133 15.276 107.105 14.8828 108.297 14.8828ZM118.469 14.9062C118.511 14.9062 118.545 14.9089 118.571 14.9141C118.602 14.9141 118.667 14.9167 118.766 14.9219V17.2031C118.625 17.1875 118.5 17.1771 118.391 17.1719C118.282 17.1667 118.193 17.1641 118.125 17.1641C117.23 17.1641 116.628 17.4557 116.321 18.0391C116.149 18.3672 116.063 18.8724 116.063 19.5547V23.625H113.821V15.1094H115.946V16.5938C116.29 16.026 116.589 15.638 116.844 15.4297C117.261 15.0807 117.803 14.9062 118.469 14.9062Z" fill="white"/>
<path d="M150.942 21.777L148.5 21.4982C147.913 21.4309 147.336 21.6328 146.923 22.0462L145.154 23.8151C142.433 22.4307 140.203 20.2099 138.819 17.4796L140.597 15.701C141.01 15.2876 141.212 14.7108 141.145 14.1243L140.866 11.7017C140.751 10.7307 139.934 10 138.953 10H137.29C136.204 10 135.3 10.9037 135.367 11.9901C135.877 20.2003 142.443 26.7569 150.644 27.2665C151.73 27.3338 152.634 26.4301 152.634 25.3437V23.6805C152.643 22.7095 151.913 21.8923 150.942 21.777Z" fill="white"/>
</g>
<defs>
<filter id="filter0_d" x="0" y="0" width="173" height="43" filterUnits="userSpaceOnUse" color-interpolation-filters="sRGB">
<feFlood flood-opacity="0" result="BackgroundImageFix"/>
<feColorMatrix in="SourceAlpha" type="matrix" values="0 0 0 0 0 0 0 0 0 0 0 0 0 0 0 0 0 0 127 0"/>
<feOffset dx="1" dy="3"/>
<feGaussianBlur stdDeviation="2"/>
<feColorMatrix type="matrix" values="0 0 0 0 0.568627 0 0 0 0 0.619608 0 0 0 0 0.670588 0 0 0 0.35 0"/>
<feBlend mode="normal" in2="BackgroundImageFix" result="effect1_dropShadow"/>
<feBlend mode="normal" in="SourceGraphic" in2="effect1_dropShadow" result="shape"/>
</filter>
<linearGradient id="paint0_linear" x1="3" y1="1" x2="17.2091" y2="67.9859" gradientUnits="userSpaceOnUse">
<stop stop-color="#64AAE3"/>
<stop offset="1" stop-color="#1B4C96"/>
</linearGradient>
</defs>
</svg>
